<?xml version="1.0" standalone="no"?>
<!DOCTYPE svg PUBLIC "-//W3C//DTD SVG 20010904//EN"
 "http://www.w3.org/TR/2001/REC-SVG-20010904/DTD/svg10.dtd">
<svg version="1.0" xmlns="http://www.w3.org/2000/svg"
 width="397.000000pt" height="386.000000pt" viewBox="0 0 397.000000 386.000000"
 preserveAspectRatio="xMidYMid meet">

<g transform="translate(0.000000,386.000000) scale(0.100000,-0.100000)"
fill="#000000" stroke="none">
<path d="M1800 3849 c-234 -19 -479 -88 -705 -199 -1095 -535 -1431 -1882
-708 -2841 232 -309 587 -562 955 -683 246 -81 531 -117 780 -97 275 21 501
83 743 201 393 192 697 490 888 871 266 528 272 1118 18 1646 -355 735 -1136
1172 -1971 1102z m371 -19 c689 -70 1284 -478 1579 -1085 72 -147 110 -255
145 -409 70 -314 54 -648 -45 -961 -36 -112 -125 -304 -190 -410 -105 -172
-299 -387 -455 -506 -407 -311 -917 -458 -1416 -409 -907 90 -1628 771 -1744
1648 -124 930 491 1829 1419 2073 236 61 478 82 707 59z"/>
<path d="M1792 3809 c-506 -49 -988 -300 -1310 -683 -584 -697 -584 -1675 0
-2372 454 -540 1186 -793 1889 -653 543 107 1028 453 1300 925 449 780 269
1754 -432 2340 -394 328 -931 493 -1447 443z m413 -29 c784 -90 1437 -646
1628 -1386 44 -173 52 -238 52 -454 0 -216 -7 -280 -52 -455 -135 -526 -509
-974 -1015 -1214 -733 -349 -1600 -210 -2182 349 -290 278 -475 631 -548 1040
-17 100 -17 460 0 560 63 358 212 667 451 937 293 331 739 562 1201 622 94 12
361 12 465 1z"/>
<path d="M1950 3680 l0 -90 54 0 c48 0 57 4 76 28 18 21 21 36 17 72 -7 58
-33 80 -98 80 l-49 0 0 -90z m91 50 c14 -8 19 -21 19 -48 0 -44 -14 -62 -47
-62 -21 0 -23 4 -23 60 0 64 9 72 51 50z"/>
<path d="M1715 3737 c-18 -15 -28 -36 -32 -64 -5 -37 -2 -45 25 -73 34 -33 59
-37 101 -15 34 17 41 33 41 86 0 77 -78 116 -135 66z m99 -57 c8 -43 -8 -70
-43 -70 -37 0 -53 20 -49 62 2 23 10 36 27 45 33 16 57 2 65 -37z"/>
<path d="M2135 3748 c-9 -30 -21 -159 -14 -164 4 -2 35 -7 68 -10 51 -6 61 -4
61 8 0 16 -28 28 -67 28 -18 0 -23 6 -23 25 0 23 2 24 45 18 37 -5 45 -3 45
10 0 11 -14 18 -46 23 -34 5 -44 10 -40 21 3 8 6 16 6 19 0 2 20 1 45 -3 36
-5 45 -3 45 9 0 25 -117 39 -125 16z"/>
<path d="M1560 3723 c-75 -28 -64 -157 15 -177 42 -11 95 26 95 65 0 18 -38 9
-43 -11 -3 -14 -14 -20 -32 -20 -20 0 -29 8 -41 35 -19 46 -18 52 11 71 20 13
28 14 40 4 8 -7 23 -9 32 -5 16 6 16 8 -6 26 -23 19 -43 22 -71 12z"/>
<path d="M2356 3652 c-25 -109 -31 -99 87 -128 25 -6 28 -4 25 12 -2 13 -16
22 -46 28 -35 7 -42 13 -42 33 0 19 4 23 18 19 56 -17 69 -17 75 -2 5 12 -4
19 -39 27 -33 9 -44 16 -42 28 3 11 12 15 33 12 55 -7 68 -6 72 5 5 14 -13 22
-76 30 l-49 6 -16 -70z"/>
<path d="M1451 3690 c-12 -7 -11 -22 9 -94 12 -47 26 -86 31 -86 19 0 20 26 4
93 -22 89 -26 98 -44 87z"/>
<path d="M2543 3667 c-37 -16 -30 -59 14 -94 37 -31 38 -53 2 -53 -11 0 -24
11 -31 25 -6 14 -17 25 -25 25 -20 0 -16 -44 6 -64 26 -24 91 -24 108 0 22 30
15 51 -29 88 -38 31 -41 36 -24 42 13 5 24 1 37 -14 19 -24 49 -29 49 -9 0 39
-66 73 -107 54z"/>
<path d="M1300 3633 c-29 -24 -32 -31 -27 -67 6 -43 52 -96 83 -96 23 0 91 37
97 54 10 25 -13 78 -30 72 -8 -4 -26 -9 -39 -12 -29 -8 -27 -28 4 -32 25 -4
28 -12 10 -30 -19 -19 -55 -14 -72 10 -36 51 -8 103 49 92 38 -7 55 10 26 25
-33 18 -68 12 -101 -16z"/>
<path d="M2676 3621 c-4 -6 5 -17 18 -26 l25 -17 -24 -55 c-29 -65 -31 -86 -9
-81 9 2 26 28 39 58 20 48 27 55 51 55 15 1 29 6 31 11 3 9 -19 21 -113 61 -7
2 -15 0 -18 -6z"/>
<path d="M1163 3583 c-25 -5 -73 -57 -73 -78 0 -24 19 -64 40 -85 27 -27 82
-26 114 3 26 23 29 33 27 78 -1 26 -55 90 -75 88 -6 -1 -21 -4 -33 -6z m59
-68 c35 -61 -28 -114 -71 -59 -25 32 -26 51 -4 76 23 26 54 19 75 -17z"/>
<path d="M1820 3553 c-25 -2 -83 -10 -130 -19 -612 -110 -1113 -558 -1284
-1147 -47 -160 -60 -259 -60 -447 0 -302 68 -559 213 -805 241 -409 641 -692
1114 -787 161 -32 452 -32 615 0 439 88 825 342 1067 706 275 413 344 903 193
1376 -128 401 -435 758 -817 950 -282 141 -585 199 -911 173z m387 -34 c678
-94 1225 -606 1365 -1277 19 -90 22 -139 22 -302 0 -207 -9 -277 -60 -454
-102 -356 -363 -698 -688 -901 -156 -97 -363 -179 -545 -216 -127 -26 -374
-35 -511 -19 -693 80 -1259 600 -1402 1288 -32 155 -32 450 1 602 76 354 241
640 513 886 207 186 511 333 794 383 126 22 386 27 511 10z"/>
<path d="M1853 3499 c-702 -53 -1289 -574 -1430 -1266 -27 -135 -25 -473 4
-605 47 -207 140 -420 254 -583 73 -103 254 -288 347 -355 219 -158 459 -258
707 -296 120 -19 348 -21 464 -4 631 88 1161 554 1322 1160 64 243 64 538 -1
783 -105 395 -387 757 -755 966 -267 152 -596 224 -912 200z m407 -44 c338
-65 598 -202 835 -440 417 -416 555 -1003 370 -1561 -170 -512 -612 -907
-1144 -1024 -488 -108 -1015 28 -1383 356 -468 419 -639 1051 -443 1640 75
226 192 413 369 589 271 269 545 400 961 459 66 9 354 -3 435 -19z"/>
<path d="M2163 3258 c-110 -84 -199 -154 -198 -156 2 -2 77 51 166 118 90 66
166 115 168 109 2 -6 -1 -14 -6 -18 -5 -3 -94 -66 -198 -140 -180 -129 -189
-134 -217 -123 -21 8 -36 8 -53 0 -18 -8 -36 -8 -68 1 -40 12 -48 11 -86 -8
-49 -25 -54 -36 -8 -17 39 17 209 16 214 -1 2 -6 -27 -32 -64 -58 -86 -61 -95
-69 -63 -60 23 6 24 6 10 -9 -9 -9 -42 -23 -74 -31 -54 -14 -60 -14 -103 5
-25 11 -58 20 -74 20 -34 0 -34 1 -14 40 9 17 11 30 5 30 -5 0 -16 -15 -24
-33 -12 -30 -19 -35 -61 -40 -79 -11 -134 -8 -160 9 -24 16 -27 15 -71 -22
-111 -93 -234 -188 -292 -226 -38 -25 -62 -48 -62 -59 0 -9 -11 -31 -25 -47
-14 -17 -25 -32 -25 -35 0 -9 72 -27 110 -27 24 0 30 -3 20 -9 -8 -5 -46 -5
-85 -1 l-70 8 -58 -62 c-41 -44 -56 -67 -53 -81 5 -19 10 -20 133 -13 70 3
165 9 211 13 103 8 108 -1 56 -87 -33 -54 -39 -73 -42 -133 -3 -61 3 -94 51
-260 31 -104 52 -192 47 -195 -4 -3 -10 -19 -12 -35 l-3 -30 -20 33 -19 32
-138 0 -138 0 0 -26 0 -27 -20 26 c-54 68 -159 25 -160 -66 0 -49 13 -73 51
-93 39 -20 82 -11 109 23 l20 26 0 -27 0 -26 140 0 140 0 0 33 0 32 21 -32
c16 -25 28 -33 50 -33 25 0 29 4 29 28 1 26 1 26 15 8 8 -11 15 -32 15 -47 0
-18 9 -35 27 -49 25 -20 37 -21 83 -9 9 3 16 -4 18 -18 2 -12 10 -27 18 -33
21 -18 18 -36 -20 -114 -31 -63 -66 -193 -66 -244 0 -18 38 -52 72 -65 10 -3
31 -25 48 -49 46 -65 59 -78 72 -78 11 0 80 64 143 132 13 14 20 15 41 6 19
-9 33 -9 58 0 44 16 63 15 78 -5 9 -13 29 -19 66 -20 29 -1 59 -7 66 -12 7 -6
27 -8 44 -5 29 6 31 4 37 -29 13 -69 51 -80 167 -47 45 13 49 13 73 -10 14
-13 25 -34 25 -47 0 -22 3 -23 85 -23 46 0 96 5 110 12 26 11 33 32 15 43 -19
12 -10 55 20 88 27 31 28 37 19 72 -12 43 -7 49 50 60 69 13 77 39 34 113 -15
25 -30 64 -33 86 -4 37 -11 45 -70 83 -36 23 -75 55 -87 70 -26 32 -30 25 -8
-17 9 -16 30 -37 48 -46 54 -28 85 -56 91 -80 10 -37 -3 -54 -40 -54 -47 0
-73 -38 -56 -84 11 -28 10 -33 -13 -49 -17 -13 -25 -28 -25 -48 0 -25 -4 -29
-28 -29 -15 0 -46 13 -68 29 -21 15 -56 34 -76 40 -32 11 -42 9 -77 -8 -56
-29 -87 -27 -105 7 -23 44 -52 65 -83 59 -15 -3 -39 1 -53 8 -14 6 -46 15 -73
18 -26 4 -57 13 -70 21 -12 8 -45 17 -74 21 l-52 7 -30 -44 c-50 -73 -71 -96
-101 -118 l-28 -20 -71 105 c-39 58 -71 108 -71 111 0 4 11 15 25 26 14 11 25
30 25 43 0 36 44 122 74 146 24 19 27 27 21 55 -5 30 -3 34 16 34 12 0 27 -7
33 -16 8 -10 23 -14 43 -12 l32 3 -39 90 c-35 82 -41 90 -68 93 -27 3 -31 -1
-53 -60 l-24 -63 -3 63 c-3 61 -3 62 -32 62 -20 0 -30 -5 -30 -15 0 -20 -9
-19 -33 2 -13 12 -33 17 -63 16 l-44 -1 0 70 c0 55 -6 84 -29 136 -44 102
-121 307 -121 325 0 8 16 38 35 66 19 29 32 58 28 66 -4 13 12 15 103 15 60 1
143 3 185 6 62 5 81 3 102 -11 34 -22 90 -22 124 0 22 15 41 17 111 12 46 -3
91 -12 99 -19 8 -7 106 -107 216 -223 111 -115 209 -214 217 -219 22 -14 -77
92 -332 351 -125 128 -228 238 -228 245 0 16 -101 118 -115 118 -6 0 13 -20
40 -45 28 -24 45 -44 39 -45 -6 0 -19 9 -29 20 -10 11 -23 20 -29 20 -6 -1 0
-10 13 -21 13 -11 22 -21 20 -22 -56 -32 -64 -28 -53 28 4 23 2 35 -5 35 -6 0
-11 -10 -11 -22 0 -42 -14 -52 -48 -34 -37 19 -152 33 -396 46 -185 10 -226
18 -226 44 0 7 55 55 122 107 67 52 142 111 166 132 32 27 48 35 56 28 7 -6
66 -10 132 -10 121 0 208 -11 225 -28 6 -6 11 -20 12 -32 1 -11 4 -21 7 -21
11 1 54 40 43 40 -6 0 -15 -4 -18 -10 -3 -5 -12 -10 -18 -10 -7 0 -3 7 8 16
11 8 25 12 32 10 14 -6 477 323 469 331 -3 3 -19 -5 -36 -17 -17 -12 -33 -20
-36 -18 -4 5 220 168 231 168 3 0 5 -21 3 -47 l-3 -48 -85 -45 c-47 -25 -124
-71 -171 -102 l-87 -56 -13 -74 c-7 -40 -13 -125 -13 -188 l-1 -115 80 -42
c44 -23 128 -58 188 -78 88 -31 105 -40 96 -51 -6 -8 -15 -14 -20 -14 -5 0
-90 38 -190 85 l-182 86 -66 -38 c-63 -36 -66 -40 -69 -78 -2 -38 0 -42 49
-74 28 -19 114 -81 191 -138 77 -57 143 -103 147 -103 8 0 195 168 199 179 1
4 -11 23 -28 41 -29 31 -30 34 -14 51 10 11 24 19 32 19 8 0 32 18 52 40 32
35 47 43 106 55 38 8 120 17 181 21 123 8 143 1 143 -42 0 -27 -18 -31 -69
-13 -27 9 -35 8 -51 -6 -18 -16 -23 -16 -64 -2 -62 21 -115 6 -123 -36 -5 -23
-10 -28 -27 -23 -26 7 -76 -39 -76 -69 0 -23 -28 -55 -48 -55 -20 0 -42 -56
-35 -90 5 -26 1 -36 -21 -56 -37 -35 -33 -58 17 -92 23 -16 50 -38 59 -49 17
-19 17 -20 -12 -41 -39 -29 -42 -72 -5 -72 31 0 42 -23 26 -54 -7 -13 -11 -31
-9 -41 2 -14 -9 -23 -52 -37 -30 -11 -59 -23 -64 -28 -5 -5 -10 -30 -10 -56
l-1 -46 -38 -3 c-23 -1 -47 -11 -62 -25 l-25 -23 0 21 c0 22 -2 22 -161 22
l-160 0 3 -27 c2 -22 9 -29 31 -31 26 -3 27 -5 27 -68 l0 -64 30 0 30 0 0 65
c0 58 2 65 20 65 18 0 20 -7 20 -65 l0 -65 80 0 c74 0 80 1 80 21 0 20 1 20
31 -5 32 -27 63 -33 89 -16 11 7 26 -1 57 -32 24 -23 43 -38 43 -34 0 4 -11
17 -25 28 -33 26 -32 38 5 38 27 0 30 3 30 33 l0 32 21 -32 c16 -25 28 -33 50
-33 25 0 29 4 29 28 l0 27 18 -22 c17 -21 60 -43 86 -43 7 0 30 11 50 25 34
23 36 23 36 5 0 -18 7 -20 75 -20 58 0 75 3 75 14 0 11 8 10 38 -6 45 -25 80
-20 116 18 24 26 24 26 35 6 18 -33 79 -47 124 -28 20 8 37 11 37 5 0 -5 27
-9 60 -9 45 0 62 4 66 15 8 19 50 19 58 0 3 -10 19 -15 42 -15 30 0 35 3 30
18 -4 9 -21 52 -38 95 -29 71 -34 77 -60 77 -26 0 -32 -7 -58 -62 l-29 -63 0
63 -1 62 -35 0 c-26 0 -35 -4 -35 -17 0 -14 -2 -14 -21 3 -14 13 -36 19 -66
19 -36 0 -49 -5 -68 -27 l-23 -27 -22 24 c-62 66 -162 23 -162 -70 0 -34 -1
-35 -39 -35 l-39 0 0 65 0 65 -30 0 c-26 0 -30 -4 -30 -27 0 -27 0 -27 -15 -7
-19 28 -69 48 -101 40 -14 -4 -37 -19 -50 -33 l-24 -26 0 27 c0 19 -5 26 -19
26 -36 0 -43 98 -10 131 18 18 20 25 10 40 -21 34 -11 44 14 14 30 -37 33 -15
4 25 l-22 29 31 39 c17 21 52 56 77 76 26 22 44 45 43 54 -4 24 50 17 79 -10
30 -28 78 -18 67 15 -4 12 -12 57 -18 100 -9 60 -17 83 -33 95 -21 17 -43 94
-43 152 0 33 19 40 40 15 13 -16 48 -20 66 -7 6 4 16 17 23 30 16 29 41 29 41
-2 0 -31 22 -48 53 -41 14 4 28 2 32 -4 11 -19 25 -1 16 22 -4 12 -19 24 -32
27 -21 5 -26 15 -35 70 -7 35 -17 66 -24 68 -6 2 -15 15 -20 28 -6 13 -20 28
-33 33 -21 8 -26 22 -41 98 -38 190 -35 183 -62 183 -19 0 -26 7 -30 29 -6 28
-6 29 -25 10 -27 -27 -49 -24 -49 5 0 13 6 27 13 29 7 3 5 6 -5 6 -20 1 -23
10 -39 149 l-12 104 -39 -4 c-42 -4 -48 3 -48 57 0 48 -9 65 -35 65 -13 0 -25
5 -27 11 -2 6 -94 -59 -205 -143z m249 70 c5 -50 -3 -58 -54 -58 -37 0 -38 1
-38 34 0 55 8 66 50 66 37 0 38 -1 42 -42z m98 -97 c0 -19 -18 -31 -46 -31 -8
0 -14 10 -14 25 0 21 5 25 30 25 23 0 30 -5 30 -19z m-166 -233 c4 -101 14
-247 22 -326 15 -150 10 -187 -24 -180 -12 2 -19 18 -24 53 -8 66 -10 620 -1
628 17 18 21 -5 27 -175z m-54 -95 c1 -148 5 -302 10 -343 4 -41 6 -77 4 -79
-7 -7 -233 78 -306 115 l-68 34 6 78 c7 87 32 260 40 273 17 27 278 188 307
189 4 0 7 -120 7 -267z m136 259 c6 -4 18 -88 27 -192 23 -252 26 -230 -28
-230 -42 0 -45 2 -45 28 0 15 -7 108 -15 206 -7 99 -12 184 -9 188 6 10 55 10
70 0z m-366 -46 c0 -8 -281 -208 -286 -203 -5 4 265 205 279 206 4 1 7 -1 7
-3z m465 -58 c12 -67 43 -303 40 -306 -1 -2 -18 -5 -37 -9 l-35 -5 -7 53 c-20
171 -25 283 -13 291 27 17 46 8 52 -24z m158 -167 c5 -22 0 -31 -19 -31 -6 0
-14 11 -16 25 -4 19 -1 25 12 25 10 0 20 -9 23 -19z m-48 -58 c4 -32 9 -66 12
-76 4 -16 0 -18 -29 -15 -32 3 -33 4 -41 63 -9 73 -5 85 27 85 22 0 25 -5 31
-57z m80 -121 c14 -89 -3 -99 -28 -17 -22 72 -22 97 0 93 13 -2 20 -20 28 -76z
m-53 -11 c4 -3 8 -19 10 -35 l3 -30 -100 -16 c-196 -33 -174 -34 -180 8 -3 20
-8 50 -10 65 l-5 28 138 -7 c75 -3 140 -9 144 -13z m122 -90 c4 -5 -37 -12
-91 -16 -54 -4 -141 -15 -193 -25 -97 -18 -106 -19 -96 -2 8 13 57 22 206 37
164 16 168 17 174 6z m-699 -123 c102 -51 185 -97 185 -102 0 -6 -23 -32 -52
-59 -36 -33 -58 -47 -71 -43 -31 8 -228 123 -292 171 -33 25 -60 51 -60 58 0
9 86 65 102 67 2 0 86 -42 188 -92z m-1170 41 c28 -5 127 -9 220 -8 175 1 342
-14 360 -33 7 -7 0 -9 -25 -4 -120 20 -278 27 -387 15 -108 -11 -229 -8 -268
7 -14 6 -14 8 1 26 10 11 24 16 33 13 9 -4 39 -11 66 -16z m1710 -28 c3 -5 1
-12 -5 -16 -13 -8 -50 3 -50 16 0 12 47 12 55 0z m129 0 c3 -4 3 -11 0 -14 -8
-8 -34 3 -34 14 0 11 27 12 34 0z m-1379 -33 l70 -12 -65 -13 c-36 -7 -132
-15 -215 -17 l-150 -4 130 9 c72 4 157 12 190 17 l60 9 -55 2 c-30 1 -84 8
-120 16 l-65 14 75 -5 c41 -3 107 -10 145 -16z m485 -33 c78 -58 126 -88 208
-129 54 -27 72 -41 72 -56 0 -18 -3 -19 -22 -9 -74 39 -338 223 -338 235 0 18
6 15 80 -41z m-153 13 c29 -27 30 -42 2 -27 -16 8 -28 8 -46 0 -35 -16 -45
-13 -31 9 7 11 18 20 25 20 7 0 13 5 13 10 0 16 12 12 37 -12z m-479 6 c-9 -3
-122 -11 -250 -18 -219 -12 -225 -13 -104 -15 71 0 127 -3 125 -5 -10 -9 -279
-14 -279 -6 0 6 8 18 18 28 15 15 43 17 262 19 135 1 237 -1 228 -3z m1349
-10 c13 -4 20 -10 17 -15 -8 -13 -28 -11 -50 6 -21 16 -8 20 33 9z m-87 -14
c13 -8 13 -11 -2 -26 -14 -14 -20 -15 -33 -4 -12 10 -13 16 -4 26 13 16 19 17
39 4z m-1025 -31 c11 -4 -40 -8 -120 -8 -77 -1 -201 -6 -275 -12 -259 -21
-400 -25 -400 -12 0 6 8 14 18 17 9 3 163 10 342 16 178 6 326 12 328 14 5 6
84 -6 107 -15z m123 -21 c3 -15 -4 -18 -32 -18 -24 0 -36 5 -36 14 0 30 63 33
68 4z m1002 8 c37 -1 34 4 55 -102 3 -12 14 -24 25 -27 14 -3 20 -13 20 -31 0
-26 -22 -36 -35 -16 -3 6 -28 10 -56 10 l-49 0 0 -39 c0 -37 -5 -43 -59 -85
-33 -25 -63 -46 -67 -46 -8 0 -33 32 -34 43 0 4 11 12 24 16 29 12 43 86 20
112 -23 26 -17 41 14 34 25 -5 32 0 61 39 26 37 30 49 21 65 -16 30 -13 44 8
35 9 -4 33 -8 52 -8z m-280 -20 c0 -17 -20 -42 -67 -85 -72 -65 -83 -71 -83
-44 0 17 127 153 142 153 5 0 8 -11 8 -24z m165 1 c10 -8 14 -17 9 -20 -5 -3
-21 3 -34 14 -29 22 -6 28 25 6z m-17 -33 c17 -5 20 -10 12 -19 -9 -10 -18
-11 -41 -3 -48 16 -23 35 29 22z m-55 -41 c11 -10 -13 -33 -34 -33 -12 0 -19
7 -19 20 0 14 7 20 23 20 13 0 27 -3 30 -7z m-16 -59 c-3 -3 -12 -4 -19 -1 -8
3 -5 6 6 6 11 1 17 -2 13 -5z m22 -39 c2 -2 1 -11 -3 -20 -5 -14 -8 -14 -31 1
-33 22 -32 38 2 29 16 -4 30 -8 32 -10z m189 -43 c6 -24 6 -42 1 -42 -5 0 -9
10 -9 23 0 12 -3 33 -7 47 -3 14 -3 23 0 20 3 -3 10 -25 15 -48z m45 41 c10
-18 18 -103 9 -103 -5 0 -13 25 -19 55 -8 48 -3 71 10 48z m-298 -45 c17 -7
25 -19 25 -36 l0 -24 -32 19 c-18 11 -34 27 -36 36 -4 20 7 21 43 5z m213 -67
c9 -27 6 -32 -52 -90 -34 -33 -67 -61 -73 -61 -15 0 -33 32 -33 57 0 16 122
122 142 123 3 0 11 -13 16 -29z m161 -14 c1 -5 -3 -5 -9 -2 -5 3 -10 16 -9 28
0 21 1 21 9 2 5 -11 9 -24 9 -28z m-1987 -439 c26 -26 9 -37 -27 -18 -38 21
-60 10 -63 -33 -5 -60 30 -86 69 -51 24 21 43 10 27 -16 -14 -22 -58 -35 -88
-25 -11 4 -27 20 -36 37 -42 81 55 169 118 106z m78 -58 c0 -64 -3 -80 -15
-80 -12 0 -15 15 -15 73 0 41 3 77 7 80 17 18 23 0 23 -73z m160 65 c0 -11
-12 -15 -45 -15 -38 0 -45 -3 -45 -20 0 -17 7 -20 40 -20 22 0 40 -4 40 -10 0
-5 -18 -10 -40 -10 -36 0 -40 -2 -40 -25 0 -23 4 -25 45 -25 25 0 45 -4 45
-10 0 -6 -27 -10 -60 -10 l-60 0 0 80 0 80 60 0 c47 0 60 -3 60 -15z m100 -38
l35 -52 5 55 c6 53 6 54 18 27 7 -16 12 -53 12 -83 0 -49 -2 -54 -23 -54 -16
0 -29 12 -47 45 -14 25 -28 45 -32 45 -5 0 -8 -20 -8 -45 0 -33 -4 -45 -15
-45 -12 0 -15 15 -15 73 0 107 16 115 70 34z m221 34 c32 -26 19 -36 -25 -20
-27 10 -38 10 -49 1 -12 -10 -16 -9 -20 2 -14 35 57 47 94 17z m79 -61 c0 -64
-3 -80 -15 -80 -12 0 -15 15 -15 73 0 41 3 77 7 80 17 18 23 0 23 -73z m151 0
c34 -88 33 -80 14 -80 -9 0 -18 7 -21 15 -7 18 -69 21 -80 4 -4 -7 -10 -7 -16
-1 -7 7 -3 32 13 77 32 89 52 86 90 -15z m439 65 c0 -8 -9 -15 -20 -15 -18 0
-20 -7 -20 -65 0 -51 -3 -65 -15 -65 -12 0 -15 14 -15 65 l0 65 -30 0 c-20 0
-30 5 -30 15 0 12 14 15 65 15 51 0 65 -3 65 -15z m150 0 c0 -11 -12 -15 -45
-15 -38 0 -45 -3 -45 -20 0 -17 7 -20 39 -20 22 0 43 -4 46 -10 4 -6 -12 -10
-39 -10 -42 0 -46 -2 -46 -25 0 -23 4 -25 45 -25 25 0 45 -4 45 -10 0 -6 -27
-10 -60 -10 l-60 0 0 80 0 80 60 0 c47 0 60 -3 60 -15z m153 -5 c22 -26 21
-29 -3 -27 -11 1 -20 5 -20 10 0 4 -12 7 -27 5 -26 -3 -28 -6 -28 -53 0 -45 2
-50 24 -53 13 -2 27 2 32 9 6 10 10 9 15 -5 4 -11 2 -21 -7 -27 -46 -29 -109
15 -109 76 0 69 82 113 123 65z m177 -60 c0 -97 -13 -103 -62 -32 l-33 47 -3
-47 c-2 -35 -7 -48 -18 -48 -12 0 -14 14 -12 72 4 93 23 102 67 31 l31 -48 0
53 c0 39 4 52 15 52 12 0 15 -16 15 -80z m177 53 c7 -9 13 -38 13 -64 0 -38
-5 -51 -22 -63 -83 -59 -174 58 -102 131 21 21 32 24 62 19 20 -3 43 -13 49
-23z m318 2 c71 -70 -21 -187 -102 -130 -30 21 -39 74 -19 113 25 49 81 57
121 17z m178 11 c9 -7 17 -18 17 -25 0 -14 -27 -15 -35 -1 -3 6 -17 10 -31 10
-32 0 -52 -40 -38 -78 8 -22 16 -27 43 -27 19 0 36 6 39 13 2 7 -5 12 -17 12
-12 0 -21 6 -21 15 0 10 11 15 35 15 32 0 35 -3 35 -29 0 -34 -17 -50 -62 -57
-73 -12 -119 87 -66 143 24 26 72 30 101 9z m95 -69 c3 -72 1 -77 -18 -77 -18
0 -20 6 -20 81 0 71 2 80 18 77 14 -3 17 -16 20 -81z m141 12 c17 -40 31 -76
31 -80 0 -15 -30 -10 -36 6 -4 9 -19 15 -40 15 -22 0 -37 -6 -40 -15 -5 -13
-34 -22 -34 -10 0 2 9 28 21 57 12 29 25 63 30 76 15 39 35 24 68 -49z m-949
41 c0 -11 -2 -20 -5 -20 -2 0 -9 9 -15 20 -9 16 -8 20 5 20 8 0 15 -9 15 -20z
m300 -45 l0 -65 40 0 c22 0 40 -4 40 -10 0 -5 -25 -10 -55 -10 l-55 0 0 75 c0
60 3 75 15 75 12 0 15 -14 15 -65z m-2000 14 c0 -6 14 -9 32 -7 26 2 33 -1 36
-16 4 -16 0 -18 -32 -12 -29 6 -36 4 -36 -9 0 -8 -9 -15 -20 -15 -16 0 -20 7
-20 35 0 28 4 35 20 35 11 0 20 -5 20 -11z m560 0 c0 -6 14 -9 32 -7 24 2 32
-1 34 -15 2 -15 -2 -17 -27 -12 -21 5 -31 2 -35 -9 -8 -21 -30 -21 -38 0 -12
32 -6 54 14 54 11 0 20 -5 20 -11z m979 -3 c9 -11 9 -19 -1 -35 -15 -25 -41
-24 -46 2 -8 42 23 63 47 33z m834 7 c-14 -3 -23 -13 -26 -31 -4 -24 -4 -24
-6 6 -1 29 2 32 27 31 22 -1 23 -2 5 -6z m-777 -40 c-3 -3 -13 -2 -23 1 -17 7
-17 8 2 22 18 13 20 13 23 -1 2 -9 1 -19 -2 -22z m-1323 -20 c-13 -2 -35 -2
-50 0 -16 2 -5 4 22 4 28 0 40 -2 28 -4z m331 -1 c10 -16 -22 -44 -43 -37
l-21 6 22 19 c25 21 34 24 42 12z m809 1 c-13 -2 -35 -2 -50 0 -16 2 -5 4 22
4 28 0 40 -2 28 -4z m187 -45 c0 -16 -3 -19 -11 -11 -6 6 -8 16 -5 22 11 17
16 13 16 -11z m198 -405 c5 -24 6 -43 2 -43 -15 0 -29 27 -36 70 -6 40 -5 43
8 30 9 -8 20 -34 26 -57z m-1213 -80 c-3 -13 -9 -22 -14 -19 -8 5 -6 43 7 106
6 34 7 34 10 -14 2 -27 1 -60 -3 -73z m1265 81 c0 -8 -4 -12 -10 -9 -5 3 -10
13 -10 21 0 8 5 12 10 9 6 -3 10 -13 10 -21z m-905 6 c3 -5 1 -10 -4 -10 -6 0
-11 5 -11 10 0 6 2 10 4 10 3 0 8 -4 11 -10z m235 -15 c12 -15 4 -145 -9 -145
-4 0 -15 6 -25 13 -16 11 -17 22 -11 80 7 68 20 82 45 52z m-497 -30 c4 -8 2
-17 -3 -20 -6 -4 -10 3 -10 14 0 25 6 27 13 6z m267 -41 c0 -13 -4 -24 -10
-24 -5 0 -10 14 -10 31 0 17 4 28 10 24 6 -3 10 -17 10 -31z m40 26 c0 -5 -4
-10 -10 -10 -5 0 -10 5 -10 10 0 6 5 10 10 10 6 0 10 -4 10 -10z m434 -52 c10
-13 16 -43 16 -74 0 -45 -3 -52 -25 -62 -43 -20 -53 -15 -63 32 -12 59 -5 102
21 114 31 15 34 14 51 -10z m126 7 c9 -11 9 -29 -1 -85 -7 -38 -16 -70 -20
-70 -20 0 -30 44 -23 98 9 77 18 89 44 57z m-830 -60 c0 -31 -4 -55 -10 -55
-14 0 -71 91 -64 101 3 5 21 9 40 9 l34 0 0 -55z m951 2 c19 -14 39 -77 39
-123 0 -38 -12 -44 -86 -44 l-54 0 0 72 c0 52 4 76 17 90 19 21 60 23 84 5z"/>
<path d="M2145 3070 c-159 -81 -160 -82 -174 -192 -6 -51 -12 -124 -13 -163
l-2 -70 54 -28 c61 -30 262 -108 267 -103 2 1 -2 50 -8 107 -6 57 -12 193 -12
301 -1 109 -5 198 -8 198 -3 0 -50 -22 -104 -50z m75 -70 c0 -38 -4 -52 -19
-60 -29 -15 -31 -13 -31 31 0 47 14 79 35 79 11 0 15 -13 15 -50z m0 -120 c0
-12 -40 -33 -48 -25 -4 4 2 13 12 21 23 16 36 18 36 4z m5 -247 c4 -16 1 -23
-9 -23 -10 0 -15 23 -20 90 -4 49 -4 95 1 102 5 8 11 -19 15 -67 4 -44 10 -90
13 -102z"/>
<path d="M1858 2538 c-50 -23 -62 -38 -29 -38 23 0 101 40 101 52 0 13 -21 9
-72 -14z"/>
<path d="M1925 2526 c-12 -6 -34 -21 -50 -33 l-30 -22 33 -1 c17 0 32 4 32 9
0 6 12 16 27 23 15 7 27 17 26 23 -2 14 -15 15 -38 1z"/>
<path d="M2000 2510 c0 -6 -18 -17 -39 -26 -34 -13 -59 -39 -48 -50 7 -7 57
12 57 21 0 6 6 10 13 10 11 0 47 30 47 39 0 2 -7 6 -15 10 -8 3 -15 1 -15 -4z"/>
<path d="M2010 2449 c-52 -35 -64 -55 -29 -44 49 14 79 30 79 42 0 7 5 13 11
13 5 0 7 5 4 10 -9 15 -16 13 -65 -21z"/>
<path d="M2092 2435 c-31 -17 -72 -53 -72 -64 0 -14 41 0 47 15 3 8 11 14 19
14 8 0 23 9 33 19 24 24 7 33 -27 16z"/>
<path d="M2118 2382 c-54 -42 -58 -53 -23 -50 14 1 25 8 25 15 0 7 9 13 20 13
11 0 20 7 20 15 0 9 7 18 15 21 8 4 15 10 15 15 0 18 -26 7 -72 -29z"/>
<path d="M2204 2377 c-30 -17 -74 -54 -74 -61 0 -19 44 0 80 34 40 39 37 52
-6 27z"/>
<path d="M2507 2073 c-11 -11 -8 -20 8 -20 8 0 15 6 15 14 0 14 -12 17 -23 6z"/>
<path d="M2494 2025 c-10 -8 -14 -15 -8 -15 6 0 17 7 24 15 16 19 9 19 -16 0z"/>
<path d="M2430 1998 c0 -7 5 -20 10 -28 8 -12 10 -11 10 7 0 12 -4 25 -10 28
-5 3 -10 0 -10 -7z"/>
<path d="M1463 1583 c-3 -10 -8 -21 -10 -25 -2 -5 7 -8 20 -8 20 0 24 4 20 20
-8 28 -22 35 -30 13z"/>
<path d="M2518 1595 c-24 -53 26 -109 68 -75 17 15 19 71 2 88 -21 21 -57 14
-70 -13z m63 -5 c1 -5 2 -17 2 -25 0 -30 -3 -35 -22 -35 -29 0 -45 25 -31 49
11 21 49 29 51 11z"/>
<path d="M2852 1608 c-17 -17 -15 -73 2 -88 42 -34 92 22 68 75 -13 27 -49 34
-70 13z m53 -43 c0 -23 -5 -31 -22 -33 -20 -3 -23 1 -23 33 0 32 3 36 23 33
17 -2 22 -10 22 -33z"/>
<path d="M3291 1582 c-15 -28 -14 -32 9 -32 21 0 26 16 11 39 -7 11 -11 10
-20 -7z"/>
<path d="M2595 3020 c3 -5 10 -10 16 -10 5 0 9 5 9 10 0 6 -7 10 -16 10 -8 0
-12 -4 -9 -10z"/>
<path d="M1163 2766 l-72 -76 47 1 c42 1 44 2 17 9 -27 7 -25 8 20 11 l50 2
-43 4 c-54 5 -45 23 11 23 84 0 303 -24 272 -30 l-30 -6 30 -6 c28 -6 55 5 55
22 0 9 -77 17 -232 26 -60 4 -108 11 -108 16 0 10 104 5 258 -13 83 -10 84
-10 108 16 49 53 27 62 -162 70 l-149 7 -72 -76z m287 44 c3 -4 21 -11 40 -16
l35 -8 -45 -7 -45 -6 44 -1 c24 -1 42 -5 38 -8 -3 -3 -50 -2 -104 2 -95 8 -96
9 -43 15 l55 6 -67 1 c-38 1 -70 7 -74 14 -5 8 10 10 57 6 35 -3 55 -4 44 -1
-46 11 -39 24 10 17 28 -4 52 -10 55 -14z m68 3 c-10 -2 -26 -2 -35 0 -10 3
-2 5 17 5 19 0 27 -2 18 -5z"/>
<path d="M1074 2668 c-3 -4 55 -7 128 -7 73 1 126 3 118 5 -36 7 -241 10 -246
2z"/>
<path d="M1425 2670 c22 -4 31 -8 20 -10 -15 -2 -12 -4 10 -9 29 -7 55 2 55
20 0 5 -28 8 -62 8 -58 -2 -60 -2 -23 -9z"/>
<path d="M1018 2620 c-23 -19 -21 -19 147 -18 168 1 169 2 52 7 -65 3 -121 11
-125 16 -12 18 -50 15 -74 -5z"/>
<path d="M1108 2633 c6 -2 18 -2 25 0 6 3 1 5 -13 5 -14 0 -19 -2 -12 -5z"/>
<path d="M1455 2619 c22 -4 51 -8 65 -7 16 0 11 3 -15 9 -22 4 -51 8 -65 7
-16 0 -11 -3 15 -9z"/>
<path d="M1440 2592 c21 -13 117 -25 105 -13 -6 6 -35 13 -65 16 -35 4 -50 3
-40 -3z"/>
<path d="M1930 2195 c0 -9 342 -390 354 -394 14 -5 12 -2 -183 217 -151 170
-171 190 -171 177z"/>
<path d="M1590 1655 c0 -3 16 -29 35 -58 25 -36 35 -63 35 -89 0 -36 2 -38 30
-38 28 0 30 2 30 38 0 26 11 55 34 92 l35 55 -32 3 c-23 3 -36 -2 -50 -20
l-19 -23 -15 23 c-11 15 -25 22 -49 22 -19 0 -34 -2 -34 -5z m75 -35 c19 -37
26 -37 47 0 9 17 24 30 33 30 20 0 20 -2 -15 -58 -16 -27 -30 -61 -30 -76 0
-16 -5 -26 -15 -26 -10 0 -15 10 -15 33 0 17 -11 50 -25 72 -29 47 -30 55 -10
55 8 0 21 -13 30 -30z"/>
<path d="M3158 1318 c-25 -21 -48 -61 -48 -84 0 -30 33 -68 76 -89 30 -14 40
-15 66 -4 32 13 68 62 68 91 0 30 -21 64 -50 81 -33 20 -90 22 -112 5z m123
-34 c36 -32 12 -118 -36 -130 -48 -12 -115 35 -115 81 0 24 31 66 54 75 25 9
72 -4 97 -26z"/>
<path d="M3182 1274 c-26 -18 -28 -45 -4 -66 28 -24 48 -28 71 -12 28 20 26
48 -5 73 -32 25 -33 25 -62 5z m56 -16 c16 -16 15 -47 -2 -54 -33 -13 -73 36
-49 59 10 11 38 8 51 -5z"/>
<path d="M678 1297 c-42 -6 -68 -14 -68 -22 0 -18 34 -45 57 -45 27 0 38 -29
19 -48 -13 -14 -13 -19 2 -44 9 -15 20 -28 24 -28 4 0 34 36 68 80 52 68 59
83 50 100 -12 23 -39 24 -152 7z m91 -96 c-36 -47 -57 -67 -63 -61 -7 7 -6 17
2 30 18 30 -9 80 -43 80 -14 0 -25 6 -25 13 0 20 149 37 169 20 12 -10 5 -23
-40 -82z"/>
<path d="M752 1262 c-13 -4 -23 -10 -23 -14 1 -5 1 -12 1 -18 0 -18 17 -10 34
15 9 14 15 25 14 24 -2 -1 -13 -4 -26 -7z"/>
<path d="M800 1150 c-41 -28 -74 -55 -73 -60 4 -16 74 -110 81 -110 4 0 16 7
26 15 19 15 19 15 -3 46 -13 17 -21 32 -19 33 1 1 24 18 51 36 26 18 47 37 47
42 0 14 -20 48 -28 48 -4 0 -41 -23 -82 -50z m90 9 c0 -5 -22 -24 -50 -41 -27
-18 -50 -37 -50 -41 0 -5 9 -21 20 -37 18 -25 18 -40 0 -40 -4 0 -20 19 -35
41 -31 48 -31 48 51 103 47 32 64 36 64 15z"/>
<path d="M3064 1170 c-48 -19 -67 -80 -40 -128 15 -28 64 -62 89 -62 30 0 75
32 88 62 13 32 -3 88 -26 88 -21 0 -45 -34 -38 -58 4 -17 1 -22 -14 -22 -24 0
-58 35 -48 49 3 6 14 11 24 11 15 0 48 47 39 55 -9 10 -56 13 -74 5z m50 -24
c-3 -8 -15 -16 -27 -18 -49 -7 -19 -98 32 -98 25 0 45 25 38 49 -3 11 1 22 8
25 36 13 35 -55 -1 -83 -37 -29 -70 -26 -105 8 -35 35 -38 77 -9 109 24 25 73
31 64 8z"/>
<path d="M2923 1019 c-24 -22 -43 -49 -43 -61 0 -15 -5 -19 -20 -15 -11 3 -25
-2 -32 -10 -7 -9 -45 -37 -85 -64 -40 -28 -73 -52 -73 -56 0 -12 111 -154 118
-151 4 2 44 29 90 61 71 51 82 62 82 89 0 27 2 29 28 24 23 -6 34 1 77 45 l50
51 -69 64 c-37 35 -71 64 -75 64 -3 0 -25 -19 -48 -41z m153 -98 c-5 -7 -29 7
-67 40 -48 42 -57 55 -47 66 10 12 21 5 66 -40 31 -31 52 -60 48 -66z m-29
-27 c-1 -2 -22 2 -46 8 -44 11 -61 34 -61 81 0 18 9 13 55 -33 30 -29 53 -55
52 -56z m-112 43 c9 -39 13 -42 54 -50 39 -8 42 -10 28 -24 -12 -13 -21 -14
-47 -4 l-33 11 6 -34 c4 -23 1 -39 -8 -46 -12 -10 -15 -3 -21 38 -6 50 -7 50
-52 62 -35 8 -42 14 -32 21 8 5 27 6 43 3 25 -5 27 -3 27 29 0 63 19 60 35 -6z
m-44 -88 c5 -8 9 -29 9 -47 0 -29 -2 -31 -19 -20 -16 10 -23 9 -38 -3 -10 -9
-25 -19 -33 -23 -8 -4 -2 4 14 17 24 21 26 27 17 46 -14 25 -19 26 -51 5 -23
-14 -23 -13 2 10 16 14 25 31 22 40 -5 12 0 12 31 2 21 -7 41 -19 46 -27z
m-97 22 c3 -5 -10 -21 -29 -35 -19 -15 -35 -31 -35 -37 0 -20 30 -20 56 0 29
23 44 27 44 11 0 -6 -13 -19 -30 -28 -32 -18 -37 -31 -19 -49 9 -9 21 -6 48
13 40 27 51 30 51 12 0 -7 -22 -27 -49 -45 l-48 -31 -46 65 -46 66 42 33 c45
36 53 39 61 25z"/>
<path d="M962 1018 c-7 -7 -12 -18 -12 -24 0 -7 -12 -19 -27 -26 -42 -20 -44
-69 -4 -108 16 -17 40 -30 53 -30 32 0 68 27 68 51 0 10 7 19 15 19 21 0 37
44 26 73 -18 46 -91 73 -119 45z m98 -43 c14 -25 7 -60 -10 -50 -5 3 -10 15
-10 25 0 20 -35 46 -44 32 -3 -4 5 -27 16 -50 21 -40 21 -42 3 -62 -26 -29
-59 -25 -89 11 -29 34 -30 38 -17 58 12 19 31 5 31 -24 0 -28 31 -50 48 -33 7
7 5 19 -9 42 -25 40 -24 61 2 80 26 18 61 5 79 -29z m-86 -71 c5 -14 4 -15 -9
-4 -17 14 -19 20 -6 20 5 0 12 -7 15 -16z"/>
<path d="M1066 871 c-31 -39 -56 -74 -56 -79 0 -5 25 -29 55 -52 54 -42 56
-42 75 -25 20 18 20 19 -12 53 l-33 35 33 -22 c32 -22 34 -22 53 -5 18 16 18
18 2 37 -18 19 -17 19 4 6 20 -12 24 -11 37 6 29 38 16 6 -29 -69 l-45 -76 29
-15 c28 -14 30 -13 48 13 l18 27 5 -45 c4 -37 10 -47 39 -64 l34 -20 -6 52
c-4 36 -2 52 5 52 6 0 20 8 31 17 19 18 19 16 16 -56 -4 -68 -2 -75 19 -89 23
-15 26 -13 93 59 l69 74 -30 -83 -30 -83 27 -10 c14 -5 27 -8 29 -7 1 2 16 41
33 88 29 79 30 86 14 97 -9 7 -25 13 -36 13 -10 0 -28 5 -39 11 -17 9 -26 6
-55 -23 l-35 -33 7 43 7 42 -45 20 c-24 11 -49 26 -56 33 -6 8 -30 22 -53 32
-24 11 -71 41 -104 67 l-62 48 -56 -69z m134 -10 c23 -18 23 -20 7 -27 -12 -4
-26 1 -42 16 -16 15 -30 20 -42 15 -16 -6 -14 -10 15 -34 29 -25 42 -51 25
-51 -3 0 -21 11 -38 24 -24 19 -35 22 -44 13 -18 -18 -13 -32 19 -55 29 -22
39 -42 21 -42 -4 0 -29 16 -54 35 l-47 36 51 64 51 65 26 -20 c15 -11 38 -28
52 -39z m-35 -21 c3 -5 2 -10 -4 -10 -5 0 -13 5 -16 10 -3 6 -2 10 4 10 5 0
13 -4 16 -10z m140 -45 c24 -13 45 -32 49 -40 9 -25 -12 -55 -38 -55 -22 0
-23 -3 -18 -46 4 -43 3 -46 -13 -36 -11 6 -20 23 -21 42 -5 64 -25 80 -46 35
-11 -23 -42 -32 -41 -12 0 11 76 137 82 137 2 0 23 -11 46 -25z m111 -117 c-3
-32 -2 -58 2 -58 4 0 23 19 43 42 27 31 41 40 54 34 16 -6 10 -15 -40 -66 -33
-33 -68 -60 -79 -60 -17 0 -18 5 -12 46 3 26 6 66 6 90 0 36 3 42 16 37 14 -5
15 -16 10 -65z m168 -7 c10 -16 -45 -151 -61 -151 -8 0 -13 6 -11 13 3 6 15
42 27 80 22 64 33 78 45 58z"/>
<path d="M1256 764 c-7 -19 -8 -17 22 -33 25 -13 42 -7 42 14 0 14 -29 35 -48
35 -6 0 -13 -7 -16 -16z m39 -14 c3 -5 1 -10 -4 -10 -6 0 -11 5 -11 10 0 6 2
10 4 10 3 0 8 -4 11 -10z"/>
<path d="M2623 793 c-15 -10 -23 -26 -23 -46 l0 -30 -23 21 -23 21 -32 -20
-33 -20 19 -32 c11 -17 32 -53 47 -79 28 -50 44 -58 67 -34 8 7 30 19 50 26
20 7 45 21 57 30 l22 16 -46 82 c-25 45 -49 82 -53 81 -4 0 -17 -7 -29 -16z
m61 -67 c20 -35 36 -69 36 -75 0 -24 -19 -9 -44 34 -15 25 -28 45 -30 45 -2 0
2 -21 10 -47 18 -58 18 -62 -2 -70 -11 -4 -29 8 -56 38 l-39 44 25 -46 c29
-52 32 -69 12 -69 -7 0 -30 31 -50 69 -36 70 -36 70 -15 81 19 10 26 7 60 -26
42 -41 43 -40 29 20 -7 33 -6 42 8 53 9 7 18 13 19 13 1 0 17 -29 37 -64z"/>
<path d="M2348 683 c-32 -8 -58 -20 -58 -25 0 -18 51 -178 57 -178 16 0 143
43 143 48 -1 29 -15 52 -29 48 -9 -3 -29 -8 -46 -11 -28 -5 -27 -4 5 8 31 13
35 18 32 48 -7 87 -7 87 -104 62z m77 -12 c-3 -5 -20 -13 -38 -16 -45 -10 -48
-14 -37 -35 8 -16 15 -17 42 -9 41 11 48 11 48 -1 0 -5 -15 -13 -32 -18 -26
-6 -34 -14 -36 -36 -3 -22 0 -27 11 -23 9 3 32 9 51 13 61 11 41 -12 -24 -29
l-60 -15 -20 68 c-11 37 -20 72 -20 78 0 10 58 29 98 31 13 1 21 -3 17 -8z"/>
<path d="M1652 655 c-41 -18 -67 -73 -57 -122 7 -37 52 -73 91 -73 26 0 74 36
74 55 0 21 -39 40 -53 26 -15 -15 -47 -14 -47 2 0 32 14 57 31 57 11 0 19 -7
19 -15 0 -10 11 -15 35 -15 25 0 35 4 35 16 0 29 -21 56 -55 70 -40 16 -32 17
-73 -1z m85 -29 c43 -37 19 -48 -29 -14 -13 10 -23 10 -35 2 -20 -12 -35 -61
-27 -86 6 -21 44 -24 62 -6 9 9 15 9 25 -1 29 -29 -59 -56 -97 -28 -9 7 -20
31 -23 54 -5 37 -2 46 25 73 37 36 62 38 99 6z"/>
<path d="M2145 641 c-16 -3 -30 -10 -29 -14 0 -4 7 -46 13 -92 l13 -85 38 0
c89 0 127 37 117 112 -10 74 -58 99 -152 79z m109 -24 c9 -7 21 -30 26 -52 11
-48 -6 -82 -45 -90 -79 -16 -71 -20 -84 48 -7 34 -14 70 -17 79 -3 10 2 18 13
21 37 10 90 7 107 -6z"/>
<path d="M2175 553 c8 -60 17 -70 50 -55 26 12 31 34 19 80 -5 17 -13 22 -41
22 l-35 0 7 -47z m53 3 c3 -27 -12 -56 -23 -44 -3 3 -9 22 -12 43 -5 33 -4 37
13 33 12 -2 20 -13 22 -32z"/>
<path d="M1790 549 c-14 -96 -10 -108 31 -109 17 0 22 17 35 138 l7 62 -30 0
-30 0 -13 -91z m46 14 c-9 -77 -17 -104 -28 -101 -12 4 -12 2 -3 88 5 53 11
70 22 70 13 0 15 -9 9 -57z"/>
<path d="M1941 629 c-46 -10 -70 -44 -71 -96 0 -84 82 -127 153 -80 45 29 49
116 6 156 -27 25 -46 29 -88 20z m82 -41 c44 -52 6 -138 -61 -138 -51 0 -72
23 -72 79 0 54 7 66 40 80 33 13 71 5 93 -21z"/>
<path d="M1932 578 c-7 -7 -12 -26 -12 -43 0 -36 15 -55 45 -55 28 0 45 19 45
50 0 45 -50 76 -78 48z m58 -43 c0 -41 -23 -56 -47 -32 -24 24 -9 67 22 67 22
0 25 -4 25 -35z"/>
<path d="M2815 3522 c-13 -20 -30 -52 -36 -70 -10 -29 -9 -37 8 -60 22 -30 68
-45 93 -32 21 11 83 127 75 140 -12 20 -25 9 -57 -50 -34 -61 -55 -73 -79 -44
-11 14 -9 24 16 72 39 73 38 69 20 75 -10 4 -23 -6 -40 -31z"/>
<path d="M956 3461 c-3 -5 13 -43 36 -84 l42 -76 49 27 c49 26 66 46 53 60 -4
4 -25 -3 -47 -16 l-39 -22 -37 60 c-38 60 -47 68 -57 51z"/>
<path d="M2945 3400 c-41 -60 -46 -72 -35 -85 19 -23 65 -45 92 -45 60 1 111
95 75 140 -12 16 -71 60 -80 60 -3 0 -26 -31 -52 -70z m89 4 c22 -21 20 -46
-5 -78 -23 -29 -37 -32 -64 -12 -18 13 -17 15 11 60 32 51 36 53 58 30z"/>
<path d="M870 3403 c-66 -24 -81 -101 -29 -152 41 -41 80 -41 121 -1 25 25 29
36 24 61 -7 38 -43 89 -61 89 -7 0 -19 2 -27 4 -7 3 -20 2 -28 -1z m59 -59
c24 -30 27 -54 9 -72 -20 -20 -55 -13 -77 14 -25 32 -26 47 -5 68 23 23 50 19
73 -10z"/>
<path d="M3082 3300 c-49 -66 -57 -90 -29 -90 7 1 35 31 64 69 39 51 49 71 40
80 -6 6 -14 11 -17 11 -3 0 -29 -32 -58 -70z"/>
<path d="M741 3296 c-8 -10 -2 -22 24 -53 l35 -41 -62 19 c-45 13 -65 15 -75
8 -15 -13 -10 -21 58 -97 37 -41 49 -49 58 -38 8 10 2 23 -25 54 l-35 41 53
-15 c29 -9 57 -18 61 -21 4 -3 14 1 22 7 17 14 13 21 -56 98 -37 41 -49 49
-58 38z"/>
<path d="M3131 3264 c-31 -39 -28 -98 5 -129 43 -40 100 -28 134 27 26 43 25
60 -6 97 -21 26 -33 31 -69 31 -35 0 -48 -5 -64 -26z m113 -26 c16 -26 -4 -71
-37 -82 -57 -20 -88 35 -46 80 26 28 66 29 83 2z"/>
<path d="M3306 3154 c-20 -20 -20 -47 0 -86 11 -22 13 -33 5 -41 -19 -19 -46
6 -45 39 1 43 -29 60 -39 23 -12 -45 27 -99 72 -99 51 0 66 42 35 102 -9 18
-12 34 -7 39 11 11 39 -18 44 -45 5 -26 26 -32 31 -9 9 36 -35 93 -71 93 -5 0
-17 -7 -25 -16z"/>
<path d="M571 3134 c-31 -40 -27 -80 13 -120 43 -43 82 -45 119 -6 27 28 34
56 19 80 -5 7 -16 10 -25 6 -20 -7 -21 -16 -6 -31 8 -8 5 -17 -10 -32 -20 -20
-23 -20 -50 -6 -39 20 -56 67 -31 90 9 9 23 15 31 13 7 -2 15 5 17 15 6 29
-52 22 -77 -9z"/>
<path d="M458 2986 l-37 -53 71 -51 71 -52 38 54 c22 30 39 57 39 60 0 17 -31
2 -50 -24 -12 -16 -28 -30 -35 -30 -25 0 -28 21 -6 51 11 15 21 33 21 39 0 20
-25 9 -45 -20 -22 -33 -24 -34 -44 -21 -12 8 -10 16 13 45 24 32 28 56 8 56
-4 0 -24 -24 -44 -54z"/>
<path d="M3458 2969 c-20 -11 -23 -53 -8 -94 8 -21 7 -27 -7 -32 -19 -7 -44
22 -36 43 3 8 2 21 -1 30 -5 13 -9 14 -21 4 -23 -19 -18 -68 10 -95 27 -28 52
-31 80 -11 15 11 17 21 11 70 -5 44 -3 57 6 54 7 -3 15 -19 19 -37 9 -42 18
-50 34 -28 17 23 2 71 -28 92 -25 17 -36 18 -59 4z"/>
<path d="M371 2856 c-17 -29 -31 -59 -31 -65 0 -18 18 -13 34 10 l15 21 60
-36 c56 -34 81 -39 81 -16 0 5 -27 25 -60 46 -63 39 -67 43 -49 61 12 12 4 33
-11 33 -5 0 -22 -24 -39 -54z"/>
<path d="M3522 2818 c-65 -37 -79 -66 -56 -114 23 -48 49 -51 126 -14 53 26
65 35 61 51 -3 10 -8 19 -10 19 -3 0 -32 -14 -64 -31 -61 -33 -89 -33 -89 -1
0 23 22 43 78 71 41 21 51 44 21 48 -8 1 -38 -12 -67 -29z"/>
<path d="M277 2650 c-56 -66 -15 -150 74 -150 34 0 42 5 59 33 42 66 10 130
-71 143 -31 5 -39 2 -62 -26z m101 -30 c39 -37 23 -80 -30 -80 -53 0 -90 66
-50 89 27 16 56 13 80 -9z"/>
<path d="M3593 2652 c-54 -20 -73 -31 -73 -45 0 -18 8 -18 56 0 6 2 17 -10 24
-27 17 -42 43 -54 78 -38 17 9 28 22 30 40 3 28 -22 98 -35 97 -4 0 -41 -12
-80 -27z m80 -34 c7 -26 -9 -49 -28 -42 -21 8 -25 43 -7 54 25 14 29 12 35
-12z"/>
<path d="M3650 2504 c-41 -12 -75 -25 -75 -30 1 -32 30 -116 42 -121 23 -9 26
4 10 51 -14 39 -14 45 0 50 26 10 30 7 42 -34 7 -23 18 -40 26 -40 19 0 19 12
0 56 -12 30 -12 36 0 40 21 8 33 -2 40 -36 7 -30 22 -47 32 -36 7 7 -24 114
-35 119 -4 2 -41 -7 -82 -19z"/>
<path d="M200 2463 c-20 -55 -21 -83 -1 -83 6 0 13 11 17 25 3 14 7 25 9 25 1
0 31 -9 65 -20 77 -25 80 -25 80 -1 0 14 -15 22 -66 36 -64 17 -66 19 -62 46
8 50 -19 33 -42 -28z"/>
<path d="M168 2354 c-20 -20 -3 -32 59 -42 78 -13 89 -21 73 -52 -11 -20 -17
-22 -59 -17 -25 4 -56 9 -68 13 -18 5 -23 2 -23 -14 0 -21 11 -26 91 -37 58
-9 84 5 92 45 9 45 -7 76 -45 89 -49 16 -112 24 -120 15z"/>
<path d="M3685 2346 c-49 -9 -60 -15 -60 -31 0 -17 6 -19 38 -17 46 4 49 -13
8 -52 -29 -28 -31 -35 -22 -110 1 -5 25 -6 54 -2 105 13 117 17 117 37 0 22
-4 22 -89 9 -35 -6 -66 -9 -69 -6 -2 3 10 19 27 35 25 23 33 27 38 15 3 -8 18
-14 34 -14 40 0 54 32 43 97 -10 56 -19 59 -119 39z m86 -41 c1 -8 2 -23 3
-32 2 -31 -31 -26 -42 6 -6 16 -8 32 -5 35 12 12 43 6 44 -9z"/>
<path d="M137 2155 c-4 -25 -9 -56 -13 -70 -5 -21 -3 -25 15 -25 16 0 21 6 21
25 0 24 2 24 48 18 77 -11 96 -10 100 9 3 14 -9 18 -67 24 -70 6 -71 7 -71 35
0 48 -26 35 -33 -16z"/>
<path d="M3692 2113 c-7 -3 -19 -18 -28 -34 -18 -36 -4 -103 26 -119 47 -25
132 0 144 42 19 71 -16 118 -86 117 -24 0 -49 -3 -56 -6z m81 -34 c40 -21 47
-47 21 -73 -18 -19 -75 -21 -92 -4 -19 19 -14 55 10 72 27 19 33 19 61 5z"/>
<path d="M122 2013 c3 -15 17 -18 91 -21 82 -3 87 -2 87 18 0 19 -6 20 -91 20
-81 0 -90 -2 -87 -17z"/>
<path d="M120 1910 c0 -56 3 -70 15 -70 8 0 15 9 15 19 0 25 19 31 91 31 52 0
59 2 59 20 0 18 -7 20 -75 20 -73 0 -75 1 -75 25 0 16 -6 25 -15 25 -12 0 -15
-14 -15 -70z"/>
<path d="M3660 1911 c0 -16 8 -20 43 -23 l42 -3 -42 -40 c-60 -57 -59 -101 1
-54 25 20 28 20 45 5 25 -23 68 -20 81 4 6 11 10 44 8 73 l-3 52 -87 3 c-82 3
-88 1 -88 -17z m148 -58 c-2 -20 -9 -28 -23 -28 -14 0 -21 8 -23 28 -3 23 0
27 23 27 23 0 26 -4 23 -27z"/>
<path d="M220 1810 c-11 -11 -20 -31 -20 -44 0 -41 -10 -58 -26 -45 -16 13
-19 49 -4 49 6 0 10 9 10 20 0 23 -4 24 -31 10 -25 -14 -25 -70 0 -101 16 -20
23 -22 47 -14 21 8 30 20 38 55 7 28 17 45 26 45 20 0 25 -32 10 -60 -18 -34
-9 -48 18 -30 17 13 22 26 22 59 0 68 -48 98 -90 56z"/>
<path d="M3646 1729 c-13 -79 -12 -103 7 -107 14 -3 17 4 17 47 0 52 7 59 43
45 11 -4 13 -13 6 -42 -4 -20 -4 -41 1 -46 16 -16 30 5 30 45 0 33 3 40 18 37
14 -3 17 -13 15 -50 -2 -33 2 -48 12 -52 19 -7 22 -1 30 70 l7 61 -54 7 c-29
4 -70 10 -90 13 -35 5 -37 4 -42 -28z"/>
<path d="M213 1652 c-50 -12 -63 -20 -63 -34 0 -14 5 -18 18 -14 9 3 35 8 57
12 l40 6 -49 -50 c-33 -34 -47 -56 -42 -67 3 -9 9 -14 13 -12 5 3 43 12 86 22
51 11 77 22 77 31 0 16 -31 18 -80 4 l-34 -10 47 48 c33 34 46 54 41 65 -7 20
-28 20 -111 -1z"/>
<path d="M3616 1560 c-19 -49 -8 -87 29 -96 29 -7 58 13 81 59 8 15 19 25 24
22 17 -11 11 -44 -10 -55 -26 -14 -26 -40 0 -40 27 0 52 42 48 81 -6 63 -71
66 -101 4 -19 -39 -40 -42 -45 -7 -2 13 5 26 17 34 28 17 26 38 -3 38 -18 0
-27 -9 -40 -40z"/>
<path d="M265 1486 c-44 -12 -79 -25 -78 -29 1 -4 3 -11 5 -16 3 -10 165 30
167 42 5 32 10 32 -94 3z"/>
<path d="M310 1210 c0 -16 23 -60 31 -60 17 0 21 23 8 46 -12 23 -39 33 -39
14z"/>
<path d="M3580 1130 c-20 -47 7 -71 28 -25 15 34 15 42 -2 48 -9 4 -19 -5 -26
-23z"/>
<path d="M437 1031 l-68 -49 34 -43 c31 -41 37 -44 77 -43 36 1 49 7 73 34 21
23 27 38 23 56 -9 35 -46 94 -59 94 -7 -1 -42 -23 -80 -49z m99 -59 c-7 -22
-60 -54 -78 -47 -7 3 -19 15 -27 27 -11 18 -11 22 0 29 8 4 30 19 49 33 l34
26 14 -25 c7 -14 11 -34 8 -43z"/>
<path d="M3352 967 c-9 -10 2 -33 44 -95 57 -85 81 -97 69 -35 -7 41 15 73 51
73 22 0 41 16 31 26 -7 7 -148 44 -168 44 -9 0 -21 -6 -27 -13z m98 -41 c0
-13 -13 -36 -21 -36 -4 0 -13 9 -19 20 -9 18 -8 20 15 20 14 0 25 -2 25 -4z"/>
<path d="M543 892 c-34 -26 -62 -51 -62 -57 0 -5 19 -32 43 -60 37 -41 46 -47
51 -33 5 12 -2 28 -19 49 -31 36 -32 45 -8 58 14 8 22 3 41 -25 13 -19 27 -34
32 -34 20 0 18 23 -6 51 -20 25 -23 34 -14 46 11 12 18 7 50 -29 31 -36 38
-40 44 -26 7 18 -60 108 -80 108 -5 0 -38 -22 -72 -48z"/>
<path d="M3248 832 l-51 -48 69 -57 c38 -32 73 -56 79 -54 20 7 15 34 -10 47
-37 20 -25 35 31 38 82 5 96 41 15 42 -27 0 -32 3 -27 17 7 16 -28 63 -46 63
-5 0 -32 -22 -60 -48z m72 -15 c0 -7 -8 -22 -18 -35 -18 -23 -18 -23 -35 -4
-17 19 -17 21 9 41 26 21 44 20 44 -2z"/>
<path d="M698 725 c-32 -35 -58 -66 -58 -69 0 -3 19 -23 42 -45 33 -30 46 -37
56 -29 10 9 6 18 -20 45 l-32 33 49 50 c43 44 47 52 35 64 -13 13 -22 6 -72
-49z"/>
<path d="M3130 724 l-45 -45 64 -60 c35 -33 67 -58 71 -57 4 2 27 20 50 41 29
27 39 42 32 49 -7 7 -21 2 -45 -16 -21 -16 -41 -24 -51 -20 -22 8 -21 13 14
49 19 20 26 35 21 43 -6 11 -16 7 -43 -17 -29 -25 -38 -28 -47 -18 -8 10 -2
21 24 47 33 32 37 50 11 50 -6 0 -32 -21 -56 -46z"/>
<path d="M3040 649 c-14 -12 -33 -27 -44 -34 -17 -13 -15 -18 38 -84 38 -47
61 -68 71 -65 19 8 19 9 -7 45 l-22 30 29 24 c24 19 27 26 18 36 -10 10 -17 8
-36 -9 -13 -12 -28 -22 -34 -22 -24 0 -19 26 10 51 18 15 27 30 23 37 -10 16
-17 15 -46 -9z"/>
<path d="M815 614 c-38 -24 -71 -48 -73 -53 -5 -14 30 -22 44 -10 20 16 69
-25 69 -59 0 -14 5 -27 12 -29 14 -5 68 161 59 183 -9 23 -37 15 -111 -32z
m75 -11 c-1 -5 -6 -18 -14 -31 -11 -21 -14 -22 -26 -7 -11 13 -10 18 6 30 21
16 34 19 34 8z"/>
<path d="M2934 569 c-6 -10 82 -149 95 -149 3 0 12 4 19 9 10 6 1 25 -35 79
-47 69 -65 83 -79 61z"/>
<path d="M991 485 c-23 -41 -41 -76 -41 -78 0 -3 7 -7 15 -11 10 -3 20 5 30
24 25 49 37 41 50 -32 3 -22 14 -42 25 -48 18 -10 19 -7 13 38 -5 46 -4 49 18
48 15 -1 28 8 38 26 14 25 14 28 -4 48 -17 19 -85 60 -99 60 -2 0 -23 -34 -45
-75z m94 11 c11 -8 16 -19 12 -30 -6 -15 -9 -15 -36 -1 -20 10 -28 20 -25 30
8 19 25 19 49 1z"/>
<path d="M2885 540 c-3 -5 3 -27 15 -49 11 -22 20 -43 20 -47 0 -3 -25 8 -56
26 -78 44 -89 30 -45 -53 43 -79 57 -95 72 -80 8 8 4 21 -15 49 -14 21 -26 42
-26 45 0 4 24 -6 53 -22 94 -52 108 -30 46 71 -44 70 -53 79 -64 60z"/>
<path d="M1144 405 c-19 -41 -34 -77 -34 -82 0 -11 111 -64 121 -57 19 11 7
26 -31 41 -26 10 -40 22 -40 34 0 27 16 32 49 14 38 -19 51 -19 51 0 0 8 -16
21 -35 29 -19 8 -35 20 -35 26 0 19 28 22 60 5 23 -12 35 -14 43 -6 15 15 2
26 -61 50 l-54 20 -34 -74z"/>
<path d="M2680 437 c-14 -7 -31 -26 -39 -42 -13 -26 -12 -33 10 -74 30 -58 64
-72 114 -48 63 30 70 86 19 146 -28 34 -61 40 -104 18z m83 -49 c30 -40 15
-82 -31 -86 -29 -3 -34 1 -47 33 -31 72 32 114 78 53z"/>
<path d="M1327 389 c-38 -22 -59 -98 -37 -139 11 -20 60 -40 100 -40 26 0 50
30 50 64 0 11 -47 36 -66 36 -12 0 -1 -31 14 -39 26 -15 1 -35 -33 -27 -36 9
-49 48 -30 87 20 38 62 40 94 3 15 -18 26 -23 33 -16 14 14 -7 49 -42 67 -34
17 -58 19 -83 4z"/>
<path d="M2491 365 c-19 -9 -31 -20 -29 -27 3 -7 15 -44 28 -83 12 -38 24 -71
25 -72 1 -2 28 7 60 20 35 13 61 30 65 42 9 26 -5 65 -24 65 -9 0 -12 7 -9 20
12 46 -47 64 -116 35z m83 -23 c7 -12 -7 -29 -33 -37 -22 -7 -40 5 -41 27 0
14 66 23 74 10z m26 -67 c17 -20 3 -35 -36 -38 -37 -3 -46 29 -12 42 32 13 34
13 48 -4z"/>
<path d="M1495 347 c-2 -6 -13 -44 -23 -84 -17 -59 -18 -74 -7 -83 7 -6 16 -7
19 -2 5 9 46 152 46 163 0 13 -31 18 -35 6z"/>
<path d="M2333 328 c-38 -13 -38 -13 -16 -113 13 -59 20 -75 32 -73 15 4 18
22 10 62 -7 32 17 29 57 -8 30 -27 42 -33 56 -25 16 9 15 12 -15 39 -26 23
-30 31 -19 41 6 7 12 25 12 41 0 45 -46 59 -117 36z m75 -45 c-4 -23 -55 -36
-62 -16 -11 28 -6 33 30 33 28 0 35 -4 32 -17z"/>
<path d="M1577 319 c-35 -21 -57 -91 -41 -134 8 -20 56 -45 88 -45 14 0 38 11
53 24 23 20 28 32 28 71 0 39 -5 51 -28 71 -29 25 -70 31 -100 13z m73 -37
c18 -15 21 -24 15 -55 -9 -47 -37 -65 -71 -46 -26 14 -31 46 -13 82 22 40 37
45 69 19z"/>
<path d="M1737 303 c-3 -5 -8 -37 -12 -73 -3 -36 -9 -73 -11 -83 -7 -22 25
-35 37 -16 5 8 9 31 9 52 0 20 4 37 8 37 5 0 19 -24 33 -52 36 -78 51 -70 66
32 6 46 10 86 8 89 -13 12 -35 -12 -35 -38 0 -65 -12 -66 -41 -2 -25 55 -49
76 -62 54z"/>
<path d="M2175 288 c-6 -17 -35 -156 -35 -169 0 -20 31 -8 40 16 5 14 15 25
22 25 7 0 23 3 35 6 16 4 23 0 28 -15 3 -12 15 -21 26 -21 10 0 19 2 19 4 0 2
-21 40 -46 85 -33 59 -51 81 -65 81 -11 0 -22 -6 -24 -12z m55 -85 c0 -7 -8
-13 -18 -13 -15 0 -18 6 -14 30 4 28 5 29 18 13 7 -10 14 -24 14 -30z"/>
<path d="M1985 265 c-29 -28 -33 -71 -10 -114 16 -32 33 -41 74 -41 28 0 61
26 61 48 0 22 -22 24 -36 3 -29 -41 -74 -20 -74 35 0 52 43 82 70 50 13 -17
40 -10 40 10 0 39 -89 46 -125 9z"/>
</g>
</svg>
